<mxfile host="Electron" modified="2024-07-14T01:23:44.219Z" agent="Mozilla/5.0 (Windows NT 10.0; Win64; x64) AppleWebKit/537.36 (KHTML, like Gecko) draw.io/24.5.3 Chrome/124.0.6367.207 Electron/30.0.6 Safari/537.36" etag="AM3VJzWX-zxESq_Yfx06" version="24.5.3" type="device" pages="2">
  <diagram name="Page-1" id="3OC9Rb5-22xeaMz2C4g0">
    <mxGraphModel dx="989" dy="582" grid="0" gridSize="10" guides="1" tooltips="1" connect="1" arrows="1" fold="1" page="1" pageScale="1" pageWidth="850" pageHeight="1100" math="0" shadow="0">
      <root>
        <mxCell id="0" />
        <mxCell id="1" parent="0" />
        <mxCell id="Tnt5CvUX-H7UQsoX283W-1" value="" style="whiteSpace=wrap;html=1;aspect=fixed;" parent="1" vertex="1">
          <mxGeometry x="236" y="221" width="404" height="404" as="geometry" />
        </mxCell>
        <mxCell id="Tnt5CvUX-H7UQsoX283W-2" value="&lt;font style=&quot;font-size: 18px;&quot;&gt;LED Driver&lt;/font&gt;" style="text;html=1;strokeColor=none;fillColor=none;align=center;verticalAlign=middle;whiteSpace=wrap;rounded=0;" parent="1" vertex="1">
          <mxGeometry x="15" y="27" width="167" height="30" as="geometry" />
        </mxCell>
        <mxCell id="ZXyY7R0-EB3gzcIrjmii-5" style="edgeStyle=orthogonalEdgeStyle;rounded=0;orthogonalLoop=1;jettySize=auto;html=1;exitX=0.5;exitY=0;exitDx=0;exitDy=0;entryX=0.5;entryY=0;entryDx=0;entryDy=0;strokeColor=#FF0000;" edge="1" parent="1" source="ZXyY7R0-EB3gzcIrjmii-1" target="ZXyY7R0-EB3gzcIrjmii-4">
          <mxGeometry relative="1" as="geometry" />
        </mxCell>
        <mxCell id="ZXyY7R0-EB3gzcIrjmii-13" style="edgeStyle=orthogonalEdgeStyle;rounded=0;orthogonalLoop=1;jettySize=auto;html=1;exitX=0.5;exitY=1;exitDx=0;exitDy=0;entryX=0;entryY=0.5;entryDx=0;entryDy=0;strokeColor=#FF0000;" edge="1" parent="1" source="ZXyY7R0-EB3gzcIrjmii-1" target="ZXyY7R0-EB3gzcIrjmii-6">
          <mxGeometry relative="1" as="geometry">
            <Array as="points">
              <mxPoint x="333" y="348" />
              <mxPoint x="248" y="348" />
              <mxPoint x="248" y="578" />
            </Array>
          </mxGeometry>
        </mxCell>
        <mxCell id="ZXyY7R0-EB3gzcIrjmii-14" style="edgeStyle=orthogonalEdgeStyle;rounded=0;orthogonalLoop=1;jettySize=auto;html=1;exitX=0.5;exitY=1;exitDx=0;exitDy=0;entryX=0.25;entryY=0;entryDx=0;entryDy=0;strokeColor=#FF0000;" edge="1" parent="1" source="ZXyY7R0-EB3gzcIrjmii-1" target="ZXyY7R0-EB3gzcIrjmii-8">
          <mxGeometry relative="1" as="geometry">
            <Array as="points">
              <mxPoint x="333" y="348" />
              <mxPoint x="307" y="348" />
            </Array>
          </mxGeometry>
        </mxCell>
        <mxCell id="ZXyY7R0-EB3gzcIrjmii-15" style="edgeStyle=orthogonalEdgeStyle;rounded=0;orthogonalLoop=1;jettySize=auto;html=1;exitX=0.5;exitY=1;exitDx=0;exitDy=0;entryX=0.25;entryY=0;entryDx=0;entryDy=0;strokeColor=#FF0000;" edge="1" parent="1" source="ZXyY7R0-EB3gzcIrjmii-1" target="ZXyY7R0-EB3gzcIrjmii-9">
          <mxGeometry relative="1" as="geometry">
            <Array as="points">
              <mxPoint x="333" y="348" />
              <mxPoint x="507" y="348" />
            </Array>
          </mxGeometry>
        </mxCell>
        <mxCell id="ZXyY7R0-EB3gzcIrjmii-1" value="Power Regulation" style="rounded=0;whiteSpace=wrap;html=1;fillColor=#d80073;fontColor=#ffffff;strokeColor=#A50040;" vertex="1" parent="1">
          <mxGeometry x="273" y="275" width="120" height="60" as="geometry" />
        </mxCell>
        <mxCell id="ZXyY7R0-EB3gzcIrjmii-2" value="" style="shape=flexArrow;endArrow=classic;html=1;rounded=0;fillColor=#FF0000;strokeColor=#6F0000;" edge="1" parent="1">
          <mxGeometry width="50" height="50" relative="1" as="geometry">
            <mxPoint x="81" y="304.5" as="sourcePoint" />
            <mxPoint x="273" y="304.5" as="targetPoint" />
          </mxGeometry>
        </mxCell>
        <mxCell id="ZXyY7R0-EB3gzcIrjmii-3" value="External Power Source" style="text;html=1;strokeColor=none;fillColor=none;align=center;verticalAlign=middle;whiteSpace=wrap;rounded=0;" vertex="1" parent="1">
          <mxGeometry x="55" y="265" width="117" height="30" as="geometry" />
        </mxCell>
        <mxCell id="ZXyY7R0-EB3gzcIrjmii-10" style="edgeStyle=orthogonalEdgeStyle;rounded=0;orthogonalLoop=1;jettySize=auto;html=1;exitX=0.5;exitY=1;exitDx=0;exitDy=0;entryX=0.5;entryY=0;entryDx=0;entryDy=0;" edge="1" parent="1" source="ZXyY7R0-EB3gzcIrjmii-4" target="ZXyY7R0-EB3gzcIrjmii-8">
          <mxGeometry relative="1" as="geometry" />
        </mxCell>
        <mxCell id="ZXyY7R0-EB3gzcIrjmii-4" value="Clock Source" style="rounded=0;whiteSpace=wrap;html=1;fillColor=#008a00;fontColor=#ffffff;strokeColor=#005700;" vertex="1" parent="1">
          <mxGeometry x="464" y="275" width="120" height="60" as="geometry" />
        </mxCell>
        <mxCell id="ZXyY7R0-EB3gzcIrjmii-6" value="LED Farm" style="rounded=0;whiteSpace=wrap;html=1;fillColor=#1ba1e2;fontColor=#ffffff;strokeColor=#006EAF;" vertex="1" parent="1">
          <mxGeometry x="268" y="563" width="340" height="29" as="geometry" />
        </mxCell>
        <mxCell id="ZXyY7R0-EB3gzcIrjmii-11" style="edgeStyle=orthogonalEdgeStyle;rounded=0;orthogonalLoop=1;jettySize=auto;html=1;exitX=1;exitY=0.5;exitDx=0;exitDy=0;entryX=0;entryY=0.5;entryDx=0;entryDy=0;" edge="1" parent="1" source="ZXyY7R0-EB3gzcIrjmii-8" target="ZXyY7R0-EB3gzcIrjmii-9">
          <mxGeometry relative="1" as="geometry" />
        </mxCell>
        <mxCell id="ZXyY7R0-EB3gzcIrjmii-8" value="4-bit Counter" style="rounded=0;whiteSpace=wrap;html=1;fillColor=#6a00ff;fontColor=#ffffff;strokeColor=#3700CC;" vertex="1" parent="1">
          <mxGeometry x="277" y="449" width="120" height="60" as="geometry" />
        </mxCell>
        <mxCell id="ZXyY7R0-EB3gzcIrjmii-17" style="edgeStyle=orthogonalEdgeStyle;rounded=0;orthogonalLoop=1;jettySize=auto;html=1;exitX=0.5;exitY=1;exitDx=0;exitDy=0;entryX=1;entryY=0.5;entryDx=0;entryDy=0;" edge="1" parent="1" source="ZXyY7R0-EB3gzcIrjmii-9" target="ZXyY7R0-EB3gzcIrjmii-6">
          <mxGeometry relative="1" as="geometry" />
        </mxCell>
        <mxCell id="ZXyY7R0-EB3gzcIrjmii-9" value="Decoder" style="rounded=0;whiteSpace=wrap;html=1;fillColor=#a20025;fontColor=#ffffff;strokeColor=#6F0000;" vertex="1" parent="1">
          <mxGeometry x="477" y="449" width="120" height="60" as="geometry" />
        </mxCell>
        <mxCell id="ZXyY7R0-EB3gzcIrjmii-18" value="" style="endArrow=none;html=1;rounded=0;strokeColor=#FF0000;" edge="1" parent="1">
          <mxGeometry width="50" height="50" relative="1" as="geometry">
            <mxPoint x="176" y="384" as="sourcePoint" />
            <mxPoint x="215" y="384" as="targetPoint" />
          </mxGeometry>
        </mxCell>
        <mxCell id="ZXyY7R0-EB3gzcIrjmii-19" value="" style="endArrow=none;html=1;rounded=0;strokeColor=#FFFFFF;" edge="1" parent="1">
          <mxGeometry width="50" height="50" relative="1" as="geometry">
            <mxPoint x="175" y="400" as="sourcePoint" />
            <mxPoint x="214" y="400" as="targetPoint" />
          </mxGeometry>
        </mxCell>
        <mxCell id="ZXyY7R0-EB3gzcIrjmii-20" value="Power" style="text;html=1;strokeColor=none;fillColor=none;align=center;verticalAlign=middle;whiteSpace=wrap;rounded=0;" vertex="1" parent="1">
          <mxGeometry x="138" y="376" width="32" height="14" as="geometry" />
        </mxCell>
        <mxCell id="ZXyY7R0-EB3gzcIrjmii-21" value="Control Signal" style="text;html=1;strokeColor=none;fillColor=none;align=center;verticalAlign=middle;whiteSpace=wrap;rounded=0;" vertex="1" parent="1">
          <mxGeometry x="90" y="393" width="86" height="14" as="geometry" />
        </mxCell>
      </root>
    </mxGraphModel>
  </diagram>
  <diagram name="Copy of Page-1" id="RZJDCYf3NxsWNNFeKq0r">
    <mxGraphModel dx="1293" dy="747" grid="0" gridSize="10" guides="1" tooltips="1" connect="1" arrows="1" fold="1" page="1" pageScale="1" pageWidth="850" pageHeight="1100" math="0" shadow="0">
      <root>
        <mxCell id="Gx2sKsFyUUtDKSqYZApk-0" />
        <mxCell id="Gx2sKsFyUUtDKSqYZApk-1" parent="Gx2sKsFyUUtDKSqYZApk-0" />
        <mxCell id="xkvw3iJ_KzHqjCOa3ey_-0" value="" style="rounded=0;whiteSpace=wrap;html=1;fillColor=#f5f5f5;fontColor=#333333;strokeColor=#666666;" vertex="1" parent="Gx2sKsFyUUtDKSqYZApk-1">
          <mxGeometry x="180" y="183" width="467" height="427" as="geometry" />
        </mxCell>
        <mxCell id="Gx2sKsFyUUtDKSqYZApk-3" value="&lt;font style=&quot;font-size: 18px;&quot;&gt;LED Driver&lt;/font&gt;" style="text;html=1;strokeColor=none;fillColor=none;align=center;verticalAlign=middle;whiteSpace=wrap;rounded=0;" vertex="1" parent="Gx2sKsFyUUtDKSqYZApk-1">
          <mxGeometry x="184" y="187" width="96" height="30" as="geometry" />
        </mxCell>
        <mxCell id="Gx2sKsFyUUtDKSqYZApk-4" style="edgeStyle=orthogonalEdgeStyle;rounded=0;orthogonalLoop=1;jettySize=auto;html=1;exitX=0.5;exitY=0;exitDx=0;exitDy=0;entryX=0.5;entryY=0;entryDx=0;entryDy=0;strokeColor=#FF0000;" edge="1" parent="Gx2sKsFyUUtDKSqYZApk-1" source="Gx2sKsFyUUtDKSqYZApk-8" target="Gx2sKsFyUUtDKSqYZApk-12">
          <mxGeometry relative="1" as="geometry" />
        </mxCell>
        <mxCell id="Gx2sKsFyUUtDKSqYZApk-5" style="edgeStyle=orthogonalEdgeStyle;rounded=0;orthogonalLoop=1;jettySize=auto;html=1;exitX=0.5;exitY=1;exitDx=0;exitDy=0;entryX=0;entryY=0.5;entryDx=0;entryDy=0;strokeColor=#FF0000;" edge="1" parent="Gx2sKsFyUUtDKSqYZApk-1" source="Gx2sKsFyUUtDKSqYZApk-8" target="Gx2sKsFyUUtDKSqYZApk-13">
          <mxGeometry relative="1" as="geometry">
            <Array as="points">
              <mxPoint x="403" y="299" />
              <mxPoint x="403" y="348" />
              <mxPoint x="248" y="348" />
              <mxPoint x="248" y="578" />
            </Array>
          </mxGeometry>
        </mxCell>
        <mxCell id="Gx2sKsFyUUtDKSqYZApk-6" style="edgeStyle=orthogonalEdgeStyle;rounded=0;orthogonalLoop=1;jettySize=auto;html=1;exitX=0.5;exitY=1;exitDx=0;exitDy=0;entryX=0.25;entryY=0;entryDx=0;entryDy=0;strokeColor=#FF0000;" edge="1" parent="Gx2sKsFyUUtDKSqYZApk-1" source="Gx2sKsFyUUtDKSqYZApk-8" target="Gx2sKsFyUUtDKSqYZApk-15">
          <mxGeometry relative="1" as="geometry">
            <Array as="points">
              <mxPoint x="403" y="299" />
              <mxPoint x="403" y="348" />
              <mxPoint x="307" y="348" />
            </Array>
          </mxGeometry>
        </mxCell>
        <mxCell id="Gx2sKsFyUUtDKSqYZApk-7" style="edgeStyle=orthogonalEdgeStyle;rounded=0;orthogonalLoop=1;jettySize=auto;html=1;exitX=0.5;exitY=1;exitDx=0;exitDy=0;entryX=0.25;entryY=0;entryDx=0;entryDy=0;strokeColor=#FF0000;" edge="1" parent="Gx2sKsFyUUtDKSqYZApk-1" source="Gx2sKsFyUUtDKSqYZApk-8" target="Gx2sKsFyUUtDKSqYZApk-17">
          <mxGeometry relative="1" as="geometry">
            <Array as="points">
              <mxPoint x="403" y="299" />
              <mxPoint x="403" y="348" />
              <mxPoint x="507" y="348" />
            </Array>
          </mxGeometry>
        </mxCell>
        <mxCell id="Gx2sKsFyUUtDKSqYZApk-8" value="Power Regulation" style="rounded=0;whiteSpace=wrap;html=1;fillColor=#d80073;fontColor=#ffffff;strokeColor=#A50040;" vertex="1" parent="Gx2sKsFyUUtDKSqYZApk-1">
          <mxGeometry x="345" y="239" width="120" height="60" as="geometry" />
        </mxCell>
        <mxCell id="Gx2sKsFyUUtDKSqYZApk-11" style="edgeStyle=orthogonalEdgeStyle;rounded=0;orthogonalLoop=1;jettySize=auto;html=1;exitX=0.5;exitY=1;exitDx=0;exitDy=0;entryX=0.5;entryY=0;entryDx=0;entryDy=0;" edge="1" parent="Gx2sKsFyUUtDKSqYZApk-1" source="Gx2sKsFyUUtDKSqYZApk-12" target="Gx2sKsFyUUtDKSqYZApk-15">
          <mxGeometry relative="1" as="geometry" />
        </mxCell>
        <mxCell id="Gx2sKsFyUUtDKSqYZApk-12" value="Clock Generation" style="rounded=0;whiteSpace=wrap;html=1;fillColor=#008a00;fontColor=#ffffff;strokeColor=#005700;" vertex="1" parent="Gx2sKsFyUUtDKSqYZApk-1">
          <mxGeometry x="488" y="239" width="120" height="60" as="geometry" />
        </mxCell>
        <mxCell id="Gx2sKsFyUUtDKSqYZApk-13" value="LED Farm" style="rounded=0;whiteSpace=wrap;html=1;fillColor=#1ba1e2;fontColor=#ffffff;strokeColor=#006EAF;" vertex="1" parent="Gx2sKsFyUUtDKSqYZApk-1">
          <mxGeometry x="268" y="563" width="340" height="29" as="geometry" />
        </mxCell>
        <mxCell id="Gx2sKsFyUUtDKSqYZApk-14" style="edgeStyle=orthogonalEdgeStyle;rounded=0;orthogonalLoop=1;jettySize=auto;html=1;exitX=1;exitY=0.5;exitDx=0;exitDy=0;entryX=0;entryY=0.5;entryDx=0;entryDy=0;" edge="1" parent="Gx2sKsFyUUtDKSqYZApk-1" source="Gx2sKsFyUUtDKSqYZApk-15" target="Gx2sKsFyUUtDKSqYZApk-17">
          <mxGeometry relative="1" as="geometry" />
        </mxCell>
        <mxCell id="Gx2sKsFyUUtDKSqYZApk-15" value="4-bit Counter" style="rounded=0;whiteSpace=wrap;html=1;fillColor=#6a00ff;fontColor=#ffffff;strokeColor=#3700CC;" vertex="1" parent="Gx2sKsFyUUtDKSqYZApk-1">
          <mxGeometry x="277" y="449" width="120" height="60" as="geometry" />
        </mxCell>
        <mxCell id="Gx2sKsFyUUtDKSqYZApk-16" style="edgeStyle=orthogonalEdgeStyle;rounded=0;orthogonalLoop=1;jettySize=auto;html=1;exitX=0.5;exitY=1;exitDx=0;exitDy=0;entryX=1;entryY=0.5;entryDx=0;entryDy=0;" edge="1" parent="Gx2sKsFyUUtDKSqYZApk-1" source="Gx2sKsFyUUtDKSqYZApk-17" target="Gx2sKsFyUUtDKSqYZApk-13">
          <mxGeometry relative="1" as="geometry" />
        </mxCell>
        <mxCell id="Gx2sKsFyUUtDKSqYZApk-17" value="Decoder" style="rounded=0;whiteSpace=wrap;html=1;fillColor=#a20025;fontColor=#ffffff;strokeColor=#6F0000;" vertex="1" parent="Gx2sKsFyUUtDKSqYZApk-1">
          <mxGeometry x="477" y="449" width="120" height="60" as="geometry" />
        </mxCell>
        <mxCell id="Gx2sKsFyUUtDKSqYZApk-19" value="" style="endArrow=none;html=1;rounded=0;strokeColor=#FFFFFF;" edge="1" parent="Gx2sKsFyUUtDKSqYZApk-1">
          <mxGeometry width="50" height="50" relative="1" as="geometry">
            <mxPoint x="175" y="400" as="sourcePoint" />
            <mxPoint x="214" y="400" as="targetPoint" />
          </mxGeometry>
        </mxCell>
        <mxCell id="xkvw3iJ_KzHqjCOa3ey_-4" style="edgeStyle=orthogonalEdgeStyle;rounded=0;orthogonalLoop=1;jettySize=auto;html=1;exitX=1;exitY=0.5;exitDx=0;exitDy=0;entryX=0;entryY=0.5;entryDx=0;entryDy=0;fillColor=#f8cecc;strokeColor=#FF0000;" edge="1" parent="Gx2sKsFyUUtDKSqYZApk-1" source="xkvw3iJ_KzHqjCOa3ey_-3" target="Gx2sKsFyUUtDKSqYZApk-8">
          <mxGeometry relative="1" as="geometry" />
        </mxCell>
        <mxCell id="xkvw3iJ_KzHqjCOa3ey_-3" value="Unregulated Power Source" style="rounded=0;whiteSpace=wrap;html=1;fillColor=#f8cecc;strokeColor=#b85450;" vertex="1" parent="Gx2sKsFyUUtDKSqYZApk-1">
          <mxGeometry x="197" y="239" width="120" height="60" as="geometry" />
        </mxCell>
      </root>
    </mxGraphModel>
  </diagram>
</mxfile>
